<svg fill="none" height="120" viewBox="0 0 121 120" width="121" xmlns="http://www.w3.org/2000/svg"><circle cx="60.5" cy="60" fill="#f6f7fb" r="60"/><path d="m57.828 108.824h-35.3625c-5.6754 0-10.2594-4.586-10.2594-10.2651v-53.2934c0-5.6788 4.584-10.2655 10.2594-10.2655h35.3625c5.6754 0 10.2594 4.5867 10.2594 10.2655v53.5118c-.2182 5.4607-4.8023 10.0467-10.2594 10.0467z" fill="#70d4f9"/><path d="m53.4624 35h-8.5132v73.824h8.5132z" fill="#16c2f8"/><path d="m52.3708 62.7397h-24.6663c-1.5281 0-3.0561-1.3105-3.0561-3.0579 0-1.5289 1.3098-3.0578 3.0561-3.0578h24.8846c1.528 0 3.056 1.3105 3.056 3.0578-.2182 1.7474-1.528 3.0579-3.2743 3.0579z" fill="#fff"/><path d="m52.3708 83.2719h-24.6663c-1.5281 0-3.0561-1.3105-3.0561-3.0578 0-1.5289 1.3098-3.0579 3.0561-3.0579h24.8846c1.528 0 3.056 1.3105 3.056 3.0579-.2182 1.7473-1.528 3.0578-3.2743 3.0578z" fill="#fff"/><path d="m62.4126 114.722c-5.0205 0-8.9497-3.932-8.9497-8.955v-71.4223c0-5.0236 3.9292-8.9551 8.9497-8.9551h30.3419c5.0206 0 8.9495 3.9315 8.9495 8.9551v71.4223c0 5.023-3.9289 8.955-8.9495 8.955z" fill="#ffd4de"/><path d="m93.4096 22.7695h-31.8699c-5.6754 0-10.2594 4.5868-10.2594 10.2656v74.0429c0 5.679 4.584 10.265 10.2594 10.265h31.8699c5.6754 0 10.2594-4.586 10.2594-10.265v-74.0429c.218-5.6788-4.3657-10.2656-10.2594-10.2656zm7.2034 82.9975c0 4.369-3.4925 8.082-8.0766 8.082h-30.1235c-4.3657 0-8.0766-3.495-8.0766-8.082v-71.4215c0-4.3683 3.4926-8.0813 8.0766-8.0813h5.8937c.4366 0 .6549.2184.8732.4368l.6548 1.3105c.4366.6552 1.0915 1.3105 1.9646 1.3105h11.7875c.8731 0 1.528-.4368 1.9646-1.3105l.6548-1.3105c.2183-.2184.4366-.4368.8732-.4368h5.8937c4.3658 0 8.077 3.4946 8.077 8.0813v71.4215z" fill="#5e27c9"/><path d="m74.1991 54.0039-7.4218 17.2548h6.9852l-6.9852 20.5311 20.7373-25.3362h-6.7669l7.64-12.4497z" fill="#fff"/></svg>