<svg fill="none" height="120" viewBox="0 0 121 120" width="121" xmlns="http://www.w3.org/2000/svg"><circle cx="60.5" cy="60" fill="#f6f7fb" r="60"/><path d="m89.4073 116.86c9.547 0 17.2867-7.743 17.2867-17.296 0-9.5525-7.7397-17.2964-17.2867-17.2964-9.5469 0-17.2862 7.7439-17.2862 17.2964 0 9.553 7.7393 17.296 17.2862 17.296z" fill="#ffda12"/><path d="m89.4072 116.149v-2.607c7.8144 0 14.2078-6.397 14.2078-14.2158h2.605c-.237 9.2408-7.5777 16.8228-16.8128 16.8228z" fill="#ffe46e"/><path d="m89.4067 113.069c7.4544 0 13.4973-6.046 13.4973-13.505 0-7.4588-6.0429-13.5054-13.4973-13.5054-7.4545 0-13.4975 6.0466-13.4975 13.5054 0 7.459 6.043 13.505 13.4975 13.505z" fill="#fb5e00"/><path d="m89.4067 112.834c7.1929 0 13.0243-5.835 13.0243-13.0319 0-7.1972-5.8314-13.0316-13.0243-13.0316s-13.0239 5.8344-13.0239 13.0316c0 7.1969 5.831 13.0319 13.0239 13.0319z" fill="#f2aa00"/><path d="m93.1966 95.0621c.2368 0 .4736-.2369.4736-.4738v-1.1847c0-.237-.2368-.4739-.4736-.4739h-8.0511c-.2368 0-.4736.2369-.4736.4739v1.1847s0 .2369.2368.2369h.2368.9472c1.184 0 3.0783.7108 3.3151 2.6063h-4.2623c-.2368 0-.4736.2369-.4736.4739v1.1847c0 .2369.2368.4738.4736.4738h4.0255c-.7104 1.4221-2.6048 2.1321-3.5519 2.3691-.4736 0-.4736.474-.2368.948l5.6831 6.16c.2368.237.4736.237.4736 0l.7104-.947c.2368-.237.2368-.474 0-.474l-4.2624-4.265s2.8416-.948 3.552-3.5541h1.4208c.2368 0 .4736-.237.4736-.4739v-1.1847c0-.2369-.2368-.4739-.4736-.4739h-1.184c0-1.1846-.4736-2.1324-1.184-2.6063z" fill="#ffe46e"/><path d="m75.4359 99.5651h-2.6048c0-9.2405 7.5775-16.5856 16.5758-16.5856v2.3694c-7.8143 0-13.971 6.3973-13.971 14.2162z" fill="#ffe46e"/><path d="m29.2608 35.8293c-.4736-.9477.2368-1.8955 1.184-2.1324 2.368-.4739 6.6303-.7108 9.7087 3.791 4.4992 6.6342 4.0256 13.9793 7.5775 14.9271 3.552.9477 37.1773-26.5371 41.2029-24.6416s-17.7598 25.8263-17.7598 25.8263 10.4191 12.5577 9.9455 21.5613-13.4975 22.746-27.9422 23.2199c-6.1568.2369-9.7087 9.0041-19.1806-2.1324-5.6832-6.3974-6.8672-13.5055-5.2096-19.9028 1.4208-6.3973 5.2096-14.4532 4.4992-24.4046-.4736-7.1081-2.8416-13.5055-4.0256-16.1118z" fill="#ff92ac"/><path d="m49.388 69.712s1.4208 1.4216 2.8416.7108c2.1311-.9477 4.0255-4.9757 8.7615-7.582 0 0-7.3407 6.3973-8.7615 11.61 0 0-3.0784-1.4217-2.8416-4.7388z" fill="#f75276"/><path d="m53.1768 78.0025s1.6576 1.4217 3.7887-.2369c2.1312-1.6586 10.656-7.582 10.656-7.582s-10.8928 9.9514-10.656 12.5577c-.2368 0-2.8415-.9478-3.7887-4.7388z" fill="#f75276"/><path d="m29.971 71.1332s-3.3151-.7108-7.8143 6.1604c-4.4991 6.8712-9.4719 12.5577-8.0511 17.2964 1.4208 4.7388 13.971 23.22 25.3373 22.746 11.1295-.474 16.3391-14.69 16.3391-14.69-12.3135-2.133-27.2318-18.4812-26.995-27.7218 0 0 .7104-2.1324 1.184-3.791z" fill="#a892f7"/><path d="m60.9912 85.5876s3.3152 1.1847 13.2607-5.2126c0 .2369-9.7087 9.9514-13.2607 5.2126z" fill="#f75276"/><path d="m71.1731 53.3635s-5.4463-5.6865-15.3919 4.9756c0 0 8.0512-7.345 16.5759-3.0801z" fill="#fff"/><path d="m28.7882 74.9238s-2.1311 5.4496 4.4992 14.4532c6.6304 9.0037 16.3391 16.349 20.3646 14.927 4.0256-1.422 2.1312-6.3972 2.1312-6.3972s-4.9727-.237-7.5775.7108c-2.6048.9477-17.2863-12.7946-19.4175-23.6938z" fill="#343758"/><g fill="#ffda12"><path d="m46.7842 29.6678-11.6031-11.136c-.9472-.7108-.7104-2.1325.2368-2.8433l2.8416-2.1324c.9472-.7108 2.368-.4739 2.8416.7108l7.8143 13.9793c.2368.237 0 .4739-.2368.7108l-.9472.7108c-.4736.237-.9472.237-.9472 0z"/><path d="m55.0715 25.8771-2.8416-15.8749c-.2368-.94771.4736-2.1324 1.6576-2.1324l3.3152-.47387c1.184-.23694 2.1312.71081 2.1312 1.8955l-1.184 16.34867c0 .237-.2368.4739-.4736.4739l-1.8944.2369c-.2368 0-.7104-.2369-.7104-.4738z"/><path d="m65.7275 24.2193 2.8416-11.8468c.2368-1.1847 1.4208-1.6586 2.3679-1.4217l1.8944.7108c.9472.4739 1.4208 1.4217 1.184 2.6064l-4.7359 11.373c-.2368.2369-.4736.4739-.7104.2369l-2.1312-.9477c-.7104-.237-.9472-.4739-.7104-.7109z"/></g></svg>